<mxfile host="app.diagrams.net" modified="2021-09-26T08:38:31.806Z" agent="5.0 (Windows NT 10.0; Win64; x64) AppleWebKit/537.36 (KHTML, like Gecko) Chrome/94.0.4606.61 Safari/537.36" etag="lmke0dLIo5dlvPVDIkfN" version="15.3.2" type="github">
  <diagram name="Page-1" id="5f0bae14-7c28-e335-631c-24af17079c00">
    <mxGraphModel dx="1550" dy="779" grid="1" gridSize="10" guides="1" tooltips="1" connect="1" arrows="1" fold="1" page="1" pageScale="1" pageWidth="1100" pageHeight="850" background="none" math="0" shadow="0">
      <root>
        <mxCell id="0" />
        <mxCell id="1" parent="0" />
        <mxCell id="KVNaXOkbH7ARZ5-L0nN6-1" value="&lt;b&gt;&lt;font style=&quot;font-size: 18px&quot;&gt;Firewall&lt;/font&gt;&lt;/b&gt;" style="verticalAlign=top;align=left;spacingTop=8;spacingLeft=2;spacingRight=12;shape=cube;size=10;direction=south;fontStyle=4;html=1;" vertex="1" parent="1">
          <mxGeometry x="310" y="92.5" width="90" height="565" as="geometry" />
        </mxCell>
        <mxCell id="KVNaXOkbH7ARZ5-L0nN6-2" value="&lt;b&gt;&lt;font style=&quot;font-size: 15px&quot;&gt;Application Server&lt;/font&gt;&lt;/b&gt;" style="verticalAlign=top;align=left;spacingTop=8;spacingLeft=2;spacingRight=12;shape=cube;size=10;direction=south;fontStyle=4;html=1;" vertex="1" parent="1">
          <mxGeometry x="710" y="95" width="280" height="330" as="geometry" />
        </mxCell>
        <mxCell id="KVNaXOkbH7ARZ5-L0nN6-3" value="&lt;b style=&quot;font-size: 20px&quot;&gt;Oracle/DB2&lt;br&gt;&amp;nbsp;Database&lt;/b&gt;" style="verticalAlign=top;align=left;spacingTop=8;spacingLeft=2;spacingRight=12;shape=cube;size=10;direction=south;fontStyle=4;html=1;" vertex="1" parent="1">
          <mxGeometry x="780" y="490" width="140" height="110" as="geometry" />
        </mxCell>
        <mxCell id="KVNaXOkbH7ARZ5-L0nN6-4" value="&lt;b&gt;&lt;font style=&quot;font-size: 15px&quot;&gt;Web Server&lt;/font&gt;&lt;/b&gt;" style="verticalAlign=top;align=left;spacingTop=8;spacingLeft=2;spacingRight=12;shape=cube;size=10;direction=south;fontStyle=4;html=1;" vertex="1" parent="1">
          <mxGeometry x="490" y="160" width="120" height="150" as="geometry" />
        </mxCell>
        <mxCell id="KVNaXOkbH7ARZ5-L0nN6-5" value="&lt;b&gt;&lt;font style=&quot;font-size: 18px&quot;&gt;&lt;br&gt;User Client&lt;/font&gt;&lt;/b&gt;" style="verticalAlign=top;align=left;spacingTop=8;spacingLeft=2;spacingRight=12;shape=cube;size=10;direction=south;fontStyle=4;html=1;" vertex="1" parent="1">
          <mxGeometry x="85" y="230" width="180" height="280" as="geometry" />
        </mxCell>
        <mxCell id="KVNaXOkbH7ARZ5-L0nN6-6" value="App" style="shape=module;align=left;spacingLeft=20;align=center;verticalAlign=top;fontStyle=1;fontSize=21;" vertex="1" parent="1">
          <mxGeometry x="125" y="330" width="100" height="50" as="geometry" />
        </mxCell>
        <mxCell id="KVNaXOkbH7ARZ5-L0nN6-7" value="Browser" style="shape=module;align=left;spacingLeft=20;align=center;verticalAlign=top;fontSize=21;fontStyle=1" vertex="1" parent="1">
          <mxGeometry x="120" y="410" width="110" height="50" as="geometry" />
        </mxCell>
        <mxCell id="KVNaXOkbH7ARZ5-L0nN6-8" value="&lt;b&gt;VR Equipment&lt;/b&gt;" style="verticalAlign=top;align=left;spacingTop=8;spacingLeft=2;spacingRight=12;shape=cube;size=10;direction=south;fontStyle=4;html=1;fontSize=21;" vertex="1" parent="1">
          <mxGeometry x="460" y="390" width="180" height="240" as="geometry" />
        </mxCell>
      </root>
    </mxGraphModel>
  </diagram>
</mxfile>
